<svg width="18" height="18" viewBox="0 0 18 18" fill="none" xmlns="http://www.w3.org/2000/svg">
    <path
        d="M17.5848 9.0804C17.5848 9.45623 17.4407 9.81953 17.1713 10.0826C16.9081 10.352 16.5447 10.5023 16.1687 10.5023H10.5041V16.1648C10.5041 16.5406 10.3537 16.9039 10.0843 17.167C9.82111 17.4301 9.46394 17.5804 9.08797 17.5804C8.712 17.5804 8.34857 17.4301 8.08539 17.167C7.81595 16.9039 7.66556 16.5406 7.66556 16.1648V10.5023H2.00098C1.62502 10.5023 1.26158 10.352 0.998403 10.0826C0.735226 9.81953 0.584839 9.45623 0.584839 9.0804C0.584839 8.70457 0.735226 8.34753 0.998403 8.07819C1.26158 7.81511 1.62502 7.66478 2.00098 7.66478H7.66556V2.00229C7.66556 1.62646 7.81595 1.26315 8.08539 1.00007C8.34857 0.73073 8.712 0.580399 9.08797 0.580399C9.46394 0.580399 9.82111 0.73073 10.0843 1.00007C10.3537 1.26315 10.5041 1.62646 10.5041 2.00229V7.66478H16.1687C16.5447 7.66478 16.9081 7.81511 17.1713 8.07819C17.4407 8.34753 17.5848 8.70457 17.5848 9.0804Z"
        fill="white" />
</svg>