<svg width="23" height="21" viewBox="0 0 23 21" fill="none" xmlns="http://www.w3.org/2000/svg">
    <path
        d="M8.62971 20.3518C7.98116 20.3518 7.35917 20.0942 6.90058 19.6356C6.44198 19.177 6.18435 18.555 6.18435 17.9064C6.18435 17.2579 6.44198 16.6359 6.90058 16.1773C7.35917 15.7187 7.98116 15.4611 8.62971 15.4611C9.27826 15.4611 9.90025 15.7187 10.3588 16.1773C10.8174 16.6359 11.0751 17.2579 11.0751 17.9064C11.0751 18.555 10.8174 19.177 10.3588 19.6356C9.90025 20.0942 9.27826 20.3518 8.62971 20.3518ZM17.1885 20.3518C16.5399 20.3518 15.9179 20.0942 15.4594 19.6356C15.0008 19.177 14.7431 18.555 14.7431 17.9064C14.7431 17.2579 15.0008 16.6359 15.4594 16.1773C15.9179 15.7187 16.5399 15.4611 17.1885 15.4611C17.837 15.4611 18.459 15.7187 18.9176 16.1773C19.3762 16.6359 19.6338 17.2579 19.6338 17.9064C19.6338 18.555 19.3762 19.177 18.9176 19.6356C18.459 20.0942 17.837 20.3518 17.1885 20.3518ZM1.24716 3.1401C0.94193 3.13025 0.652496 3.00208 0.440063 2.78269C0.227631 2.56329 0.108856 2.26988 0.108856 1.96449C0.108856 1.6591 0.227631 1.36569 0.440063 1.14629C0.652496 0.926896 0.94193 0.798724 1.24716 0.788879L2.65446 0.788879C3.75732 0.788879 4.71102 1.55428 4.95066 2.63024L6.48268 9.52861C6.72233 10.6046 7.67602 11.37 8.77888 11.37H17.9637L19.7268 4.31509H8.30081C7.99845 4.3013 7.71305 4.17148 7.50397 3.95263C7.29488 3.73379 7.17821 3.44277 7.17821 3.1401C7.17821 2.83743 7.29488 2.54641 7.50397 2.32756C7.71305 2.10872 7.99845 1.9789 8.30081 1.9651H19.7268C20.0842 1.96499 20.437 2.04638 20.7582 2.20308C21.0795 2.35977 21.3608 2.58764 21.5807 2.86938C21.8007 3.15111 21.9535 3.47928 22.0276 3.82895C22.1017 4.17862 22.0951 4.54058 22.0083 4.88731L20.2452 11.9397C20.1181 12.4486 19.8245 12.9004 19.4111 13.2232C18.9977 13.546 18.4882 13.7213 17.9637 13.7212H8.77888C7.70878 13.7213 6.67064 13.3565 5.8359 12.6869C5.00116 12.0174 4.41976 11.0831 4.18771 10.0385L2.65446 3.1401H1.24716Z"
        fill="#181725" />
</svg>