<svg width="16" height="17" viewBox="0 0 16 17" fill="none" xmlns="http://www.w3.org/2000/svg">
    <path fill-rule="evenodd" clip-rule="evenodd"
        d="M0.0745239 8.61794C0.0745239 12.905 3.54967 16.3802 7.83675 16.3802C12.1238 16.3802 15.599 12.905 15.599 8.61794C15.599 4.33086 12.1238 0.855713 7.83675 0.855713C3.54967 0.855713 0.0745239 4.33086 0.0745239 8.61794Z"
        fill="#C5C5C5" />
    <path
        d="M11.1873 11.156L11.1873 11.156L11.1864 11.1551L9.02632 9.07382L9.02608 9.07359L8.55764 8.62814L11.1863 6.10158C11.2436 6.04649 11.2912 5.98425 11.3214 5.91456C11.3506 5.84721 11.3687 5.77314 11.3687 5.69793C11.3687 5.62115 11.3573 5.54568 11.3207 5.47454C11.2922 5.40902 11.2514 5.34129 11.1971 5.28911L11.1971 5.28906L11.1951 5.28735C11.1389 5.23873 11.0749 5.19354 11.0033 5.16484C10.931 5.13592 10.8489 5.12502 10.7746 5.12502C10.6972 5.12502 10.6212 5.14219 10.5472 5.16954L10.5472 5.16952L10.5459 5.17002C10.4743 5.19872 10.4097 5.2441 10.3575 5.29429L7.30867 8.22469C7.25486 8.27641 7.21356 8.33907 7.18432 8.40652L7.1843 8.40652L7.18378 8.40784C7.15519 8.47928 7.1371 8.553 7.1371 8.62833C7.1371 8.70354 7.15512 8.7776 7.18432 8.84496C7.21356 8.91241 7.25486 8.97507 7.30867 9.02679L10.3575 11.9572L10.3575 11.9572L10.3585 11.9581C10.4711 12.0606 10.6182 12.1109 10.7692 12.1109C10.9226 12.1109 11.0696 12.0487 11.1755 11.9468C11.287 11.8397 11.3468 11.703 11.3471 11.5545C11.3528 11.4053 11.2929 11.2632 11.1873 11.156Z"
        fill="white" stroke="white" stroke-width="0.1" />
    <path
        d="M4.48507 6.07993L4.48505 6.07994L4.48598 6.08084L6.64602 8.16214L6.64626 8.16237L7.1147 8.60783L4.48603 11.1344C4.42871 11.1895 4.38112 11.2517 4.35091 11.3214C4.32171 11.3888 4.30369 11.4628 4.30369 11.538C4.30369 11.6148 4.315 11.6903 4.3516 11.7614C4.38018 11.8269 4.42097 11.8947 4.47525 11.9468L4.47521 11.9469L4.47719 11.9486C4.5334 11.9972 4.59741 12.0424 4.66907 12.0711C4.7413 12.1 4.82344 12.1109 4.89774 12.1109C4.97517 12.1109 5.05117 12.0938 5.12516 12.0664L5.12516 12.0664L5.12641 12.0659C5.19807 12.0372 5.26262 11.9919 5.31484 11.9417L8.36367 9.01128C8.41748 8.95955 8.45878 8.89689 8.48802 8.82944L8.48804 8.82945L8.48857 8.82813C8.51715 8.75668 8.53524 8.68297 8.53524 8.60763C8.53524 8.53242 8.51722 8.45836 8.48802 8.39101C8.45878 8.32355 8.41748 8.26089 8.36367 8.20917L5.31484 5.27877L5.31485 5.27876L5.31385 5.27785C5.20127 5.17534 5.05416 5.12503 4.90313 5.12503C4.74977 5.12503 4.60279 5.18726 4.4968 5.28913C4.38536 5.39624 4.3255 5.53296 4.32524 5.68142C4.31956 5.83062 4.37946 5.97279 4.48507 6.07993Z"
        fill="white" stroke="white" stroke-width="0.1" />
</svg>