<svg width="29" height="19" viewBox="0 0 29 19" fill="none" xmlns="http://www.w3.org/2000/svg">
    <path
        d="M18.1959 14.0713C18.9838 14.0713 19.764 13.9161 20.492 13.6146C21.2199 13.313 21.8813 12.8711 22.4385 12.3139C22.9956 11.7568 23.4376 11.0953 23.7391 10.3674C24.0407 9.63942 24.1959 8.85921 24.1959 8.07127C24.1959 7.28334 24.0407 6.50313 23.7391 5.77517C23.4376 5.04722 22.9956 4.38578 22.4385 3.82863C21.8813 3.27148 21.2199 2.82952 20.492 2.528C19.764 2.22647 18.9838 2.07127 18.1959 2.07127C16.6046 2.07127 15.0784 2.70341 13.9532 3.82863C12.828 4.95385 12.1959 6.47997 12.1959 8.07127C12.1959 9.66257 12.828 11.1887 13.9532 12.3139C15.0784 13.4391 16.6046 14.0713 18.1959 14.0713ZM24.5159 12.9773L28.0959 16.5573C28.1913 16.6496 28.2674 16.76 28.3197 16.882C28.372 17.0041 28.3995 17.1353 28.4006 17.2681C28.4016 17.4009 28.3763 17.5325 28.3259 17.6554C28.2755 17.7782 28.2012 17.8898 28.1072 17.9837C28.0133 18.0775 27.9016 18.1517 27.7786 18.2019C27.6557 18.2521 27.524 18.2773 27.3912 18.276C27.2585 18.2748 27.1273 18.2471 27.0053 18.1946C26.8833 18.1421 26.773 18.0658 26.6809 17.9703L23.1009 14.3903C21.4933 15.6381 19.4706 16.2264 17.4446 16.0355C15.4186 15.8445 13.5415 14.8886 12.1954 13.3623C10.8494 11.8361 10.1355 9.85422 10.1993 7.8202C10.263 5.78617 11.0995 3.8529 12.5385 2.41392C13.9775 0.974943 15.9108 0.13844 17.9448 0.0746993C19.9788 0.0109582 21.9607 0.72477 23.4869 2.07082C25.0132 3.41688 25.9691 5.29399 26.1601 7.32003C26.351 9.34607 25.7627 11.3687 24.5149 12.9763L24.5159 12.9773Z"
        fill="#53B175" />
    <rect x="0.0513153" y="0.0707703" width="8.85499" height="2.39923" rx="1.19961" fill="#53B175" />
    <rect x="0.0513153" y="7.50897" width="6.46414" height="2.39923" rx="1.19961" fill="#53B175" />
    <rect x="0.0513153" y="14.9475" width="8.85499" height="2.39923" rx="1.19961" fill="#53B175" />
</svg>