<svg width="24" height="20" viewBox="0 0 24 20" fill="none" xmlns="http://www.w3.org/2000/svg">
    <path
        d="M4.38295 8.84343L12.207 16.6675L20.0311 8.84343C20.7229 8.15168 21.1115 7.21347 21.1115 6.23519C21.1115 5.25691 20.7229 4.3187 20.0311 3.62696C19.6886 3.28444 19.282 3.01274 18.8345 2.82737C18.387 2.642 17.9073 2.54659 17.4229 2.54659C16.4446 2.54659 15.5064 2.93521 14.8147 3.62696L12.207 6.23458L9.59943 3.62818C8.90592 2.94572 7.97083 2.56494 6.99784 2.56878C6.02485 2.57263 5.0928 2.96079 4.40471 3.64872C3.71662 4.33665 3.32824 5.26861 3.32416 6.2416C3.32008 7.21458 3.70065 8.14976 4.38295 8.84343ZM11.3378 1.88731L12.207 2.75652L13.0763 1.88731C13.6462 1.31239 14.324 0.855699 15.0709 0.543454C15.8178 0.231209 16.619 0.0695598 17.4285 0.0677872C18.238 0.0660145 19.0399 0.224153 19.7881 0.533125C20.5364 0.842096 21.2162 1.29581 21.7886 1.86823C22.3611 2.44065 22.8148 3.12049 23.1238 3.86873C23.4327 4.61697 23.5909 5.41887 23.5891 6.22839C23.5873 7.03791 23.4257 7.8391 23.1134 8.58598C22.8012 9.33286 22.3445 10.0107 21.7696 10.5806L13.0775 19.2739C12.9633 19.3882 12.8277 19.4789 12.6785 19.5408C12.5292 19.6027 12.3692 19.6345 12.2077 19.6345C12.0461 19.6345 11.8861 19.6027 11.7369 19.5408C11.5876 19.4789 11.452 19.3882 11.3378 19.2739L2.64453 10.5818C2.0618 10.0138 1.59766 9.33565 1.27904 8.5868C0.960422 7.83795 0.79367 7.03329 0.788456 6.2195C0.783242 5.4057 0.93967 4.59897 1.24866 3.84611C1.55766 3.09324 2.01307 2.40922 2.58848 1.83373C3.16389 1.25823 3.84785 0.802726 4.60067 0.493624C5.3535 0.184522 6.16021 0.0279806 6.974 0.0330797C7.7878 0.0381787 8.59248 0.204817 9.34137 0.523328C10.0903 0.841839 10.7685 1.30588 11.3366 1.88854L11.3378 1.88731Z"
        fill="#181725" />
</svg>