<svg width="21" height="16" viewBox="0 0 21 16" fill="none" xmlns="http://www.w3.org/2000/svg">
    <path
        d="M2.50732 2.43073H2.40732V2.53073V13.2563V13.3563H2.50732H18.5073H18.6073V13.2563V2.53073V2.43073H18.5073H2.50732ZM2.50732 0.485605H18.5073C19.0089 0.485605 19.4914 0.699243 19.8484 1.08209C20.2056 1.46517 20.4073 1.98616 20.4073 2.53073V13.2563C20.4073 13.8009 20.2056 14.3219 19.8484 14.705C19.4914 15.0878 19.0089 15.3015 18.5073 15.3015H2.50732C2.00576 15.3015 1.5232 15.0878 1.16625 14.705C0.809085 14.3219 0.607324 13.8009 0.607324 13.2563V2.53073C0.607324 1.98616 0.809085 1.46517 1.16625 1.08209C1.5232 0.699243 2.00576 0.485605 2.50732 0.485605ZM11.5073 4.77585H16.5073C16.7437 4.77585 16.9719 4.87649 17.1413 5.05819C17.3109 5.24013 17.4073 5.4883 17.4073 5.74841C17.4073 6.00852 17.3109 6.2567 17.1413 6.43863C16.9719 6.62034 16.7437 6.72097 16.5073 6.72097H11.5073C11.271 6.72097 11.0428 6.62034 10.8734 6.43863C10.7037 6.2567 10.6073 6.00852 10.6073 5.74841C10.6073 5.4883 10.7037 5.24013 10.8734 5.05819C11.0428 4.87649 11.271 4.77585 11.5073 4.77585ZM11.5073 7.99354H16.5073C16.7437 7.99354 16.9719 8.09417 17.1413 8.27588C17.3109 8.45782 17.4073 8.70599 17.4073 8.9661C17.4073 9.22621 17.3109 9.47438 17.1413 9.65632C16.9719 9.83802 16.7437 9.93866 16.5073 9.93866H11.5073C11.271 9.93866 11.0428 9.83802 10.8734 9.65632C10.7037 9.47438 10.6073 9.22621 10.6073 8.9661C10.6073 8.70599 10.7037 8.45781 10.8734 8.27588C11.0428 8.09417 11.271 7.99354 11.5073 7.99354Z"
        fill="#181725" stroke="white" stroke-width="0.2" />
    <g clip-path="url(#clip0_2_183)">
        <path
            d="M7.25756 5.58129V6.144C7.25756 6.44841 7.11997 6.73437 6.88148 6.93731C6.63383 7.14948 6.31279 7.2694 5.97341 7.2694C5.63403 7.2694 5.30382 7.14948 5.06534 6.93731C4.82686 6.73437 4.68927 6.44841 4.68927 6.144V5.58129C4.68927 5.2861 4.82686 5.00014 5.06534 4.78797C5.30382 4.57581 5.63403 4.45589 5.97341 4.45589C6.31279 4.45589 6.63383 4.57581 6.88148 4.78797C7.11997 5.00014 7.25756 5.2861 7.25756 5.58129Z"
            fill="#181725" />
        <path
            d="M8.2207 8.90211V9.36334C8.2207 9.58473 8.11063 9.80612 7.93635 9.96294C7.7529 10.1198 7.50524 10.212 7.25759 10.212H4.6893C4.43247 10.212 4.18482 10.1198 4.01054 9.96294C3.82709 9.80612 3.7262 9.58473 3.7262 9.36334V8.87443C3.7262 8.5608 3.83627 8.24716 4.03806 7.98887C4.23985 7.73058 4.5242 7.52764 4.85441 7.40772C4.90027 7.39849 4.93696 7.38927 4.98282 7.38927C5.02868 7.38927 5.06537 7.39849 5.11124 7.40772H6.7531C6.77145 7.40772 6.78062 7.40772 6.78979 7.41694C6.78979 7.40772 6.79897 7.40772 6.79897 7.40772C6.94573 7.39849 7.03745 7.40772 7.04662 7.40772C7.39518 7.52764 7.68869 7.73058 7.89966 7.99809C8.10145 8.26561 8.2207 8.57925 8.2207 8.90211Z"
            fill="#181725" />
    </g>
    <defs>
        <clipPath id="clip0_2_183">
            <rect width="6" height="7.68429" fill="white" transform="translate(3.50732 4.45589)" />
        </clipPath>
    </defs>
</svg>