<svg width="17" height="21" viewBox="0 0 17 21" fill="none" xmlns="http://www.w3.org/2000/svg">
    <path
        d="M4.31363 10.4218C4.45446 10.3693 4.6059 10.3421 4.75901 10.3416C4.91212 10.3411 5.06379 10.3674 5.20505 10.419C5.3463 10.4706 5.47429 10.5463 5.58143 10.6418C5.68857 10.7373 5.7727 10.8506 5.82883 10.9749C5.88497 11.0993 5.91198 11.2322 5.90826 11.3659C5.90455 11.4995 5.87018 11.6311 5.8072 11.7529C5.74421 11.8748 5.65389 11.9844 5.54157 12.0752C5.42924 12.166 5.2972 12.2363 5.15324 12.2818C4.38756 12.5452 3.7304 13.0037 3.26727 13.5976C2.80414 14.1915 2.55648 14.8933 2.55652 15.6118V17.3518C2.55652 17.617 2.6772 17.8714 2.89201 18.0589C3.10682 18.2465 3.39817 18.3518 3.70196 18.3518H12.8655C13.1693 18.3518 13.4607 18.2465 13.6755 18.0589C13.8903 17.8714 14.011 17.617 14.011 17.3518V15.7048C14.0111 14.9633 13.7531 14.2392 13.2711 13.6286C12.7892 13.018 12.1061 12.5497 11.3123 12.2858C11.1674 12.2419 11.0342 12.1731 10.9203 12.0834C10.8065 11.9937 10.7145 11.885 10.6497 11.7637C10.5849 11.6424 10.5487 11.5109 10.5431 11.3771C10.5376 11.2434 10.5629 11.11 10.6175 10.9849C10.6721 10.8598 10.7549 10.7456 10.861 10.649C10.9672 10.5524 11.0944 10.4753 11.2353 10.4224C11.3761 10.3695 11.5277 10.3419 11.681 10.3411C11.8344 10.3403 11.9863 10.3664 12.1279 10.4178C13.3553 10.826 14.4117 11.5501 15.1572 12.4943C15.9026 13.4385 16.3018 14.5581 16.3019 15.7048V17.3518C16.3019 18.1475 15.9398 18.9105 15.2954 19.4731C14.6509 20.0357 13.7769 20.3518 12.8655 20.3518H3.70196C2.79059 20.3518 1.91654 20.0357 1.2721 19.4731C0.627667 18.9105 0.265625 18.1475 0.265625 17.3518L0.265625 15.6118C0.265783 14.492 0.651957 13.3981 1.37391 12.4724C2.09587 11.5468 3.12019 10.8323 4.31363 10.4218ZM8.28374 0.351807C9.49891 0.351807 10.6643 0.773234 11.5236 1.52338C12.3828 2.27352 12.8655 3.29094 12.8655 4.35181V6.35181C12.8655 7.41267 12.3828 8.43009 11.5236 9.18023C10.6643 9.93038 9.49891 10.3518 8.28374 10.3518C7.06858 10.3518 5.90319 9.93038 5.04393 9.18023C4.18468 8.43009 3.70196 7.41267 3.70196 6.35181V4.35181C3.70196 3.29094 4.18468 2.27352 5.04393 1.52338C5.90319 0.773234 7.06858 0.351807 8.28374 0.351807ZM8.28374 2.35181C7.67616 2.35181 7.09346 2.56252 6.66384 2.93759C6.23421 3.31267 5.99285 3.82137 5.99285 4.35181V6.35181C5.99285 6.88224 6.23421 7.39095 6.66384 7.76602C7.09346 8.14109 7.67616 8.35181 8.28374 8.35181C8.89133 8.35181 9.47402 8.14109 9.90365 7.76602C10.3333 7.39095 10.5746 6.88224 10.5746 6.35181V4.35181C10.5746 3.82137 10.3333 3.31267 9.90365 2.93759C9.47402 2.56252 8.89133 2.35181 8.28374 2.35181Z"
        fill="#53B175" />
</svg>