<svg width="23" height="23" viewBox="0 0 23 23" fill="none" xmlns="http://www.w3.org/2000/svg">
    <path
        d="M17.0548 4.12064C17.3398 3.84684 17.3398 3.40292 17.0548 3.12914L14.8791 1.0393C14.594 0.765489 14.1319 0.765525 13.8468 1.0393L0.520586 13.8396C0.235565 14.1134 0.235528 14.5573 0.520586 14.8312L2.69629 16.921C2.98135 17.1948 3.44351 17.1948 3.72853 16.921C4.3436 16.3302 5.34477 16.3302 5.95987 16.921C6.57497 17.5118 6.57497 18.4735 5.95987 19.0643C5.67485 19.338 5.67481 19.782 5.95987 20.0558L8.13557 22.1456C8.42063 22.4194 8.88279 22.4194 9.16781 22.1456L22.4941 9.34527C22.7791 9.07146 22.7791 8.62754 22.4941 8.35377L20.3184 6.26392C20.0333 5.99012 19.5711 5.99015 19.2861 6.26392C18.671 6.85473 17.6699 6.85475 17.0548 6.26392C16.4397 5.6731 16.4397 4.71147 17.0548 4.12064ZM16.0225 7.25545C17.0292 8.22244 18.572 8.3673 19.7395 7.69095L20.9457 8.84952L12.5952 16.8705L11.4795 15.7989C11.1945 15.525 10.7323 15.5251 10.4473 15.7989C10.1623 16.0726 10.1623 16.5166 10.4473 16.7904L11.563 17.862L8.65169 20.6584L7.44552 19.4998C8.14963 18.3783 7.99882 16.8965 6.9921 15.9295C5.98539 14.9625 4.44265 14.8176 3.27511 15.494L2.06894 14.3354L4.98018 11.5391L6.09585 12.6107C6.3809 12.8845 6.84306 12.8845 7.12808 12.6107C7.41311 12.3369 7.41311 11.893 7.12808 11.6192L6.01242 10.5476L14.3629 2.52658L15.5691 3.68515C14.865 4.80663 15.0158 6.28846 16.0225 7.25545Z"
        fill="#181725" stroke="#181725" stroke-width="0.3" />
    <path
        d="M7.7275 13.1867C7.4425 13.4604 7.44254 13.9042 7.7275 14.1779L8.81504 15.2226C9.10003 15.4963 9.56208 15.4963 9.84703 15.2226C10.132 14.9488 10.132 14.505 9.84703 14.2313L8.7595 13.1867C8.7595 13.1867 8.75949 13.1867 8.75949 13.1867C8.47455 12.9129 8.01247 12.9129 7.7275 13.1867Z"
        fill="#181725" stroke="#181725" stroke-width="0.3" />
</svg>