<svg width="19" height="19" viewBox="0 0 19 19" fill="none" xmlns="http://www.w3.org/2000/svg">
    <path
        d="M8.44133 14.0158C9.2189 14.0158 9.98886 13.8606 10.7072 13.5591C11.4256 13.2575 12.0784 12.8156 12.6282 12.2584C13.178 11.7013 13.6141 11.0398 13.9117 10.3119C14.2093 9.58394 14.3624 8.80372 14.3624 8.01579C14.3624 7.22786 14.2093 6.44765 13.9117 5.71969C13.6141 4.99174 13.178 4.3303 12.6282 3.77315C12.0784 3.216 11.4256 2.77404 10.7072 2.47252C9.98886 2.17099 9.2189 2.01579 8.44133 2.01579C6.87096 2.01579 5.3649 2.64793 4.25448 3.77315C3.14406 4.89837 2.52023 6.42449 2.52023 8.01579C2.52023 9.60709 3.14406 11.1332 4.25448 12.2584C5.3649 13.3837 6.87096 14.0158 8.44133 14.0158ZM14.6782 12.9218L18.2111 16.5018C18.3053 16.5941 18.3804 16.7045 18.4321 16.8265C18.4837 16.9486 18.5108 17.0798 18.5119 17.2126C18.5129 17.3454 18.4879 17.477 18.4382 17.5999C18.3884 17.7228 18.3151 17.8344 18.2224 17.9282C18.1296 18.022 18.0194 18.0962 17.8981 18.1464C17.7768 18.1966 17.6468 18.2218 17.5158 18.2205C17.3848 18.2193 17.2553 18.1916 17.1349 18.1391C17.0146 18.0866 16.9057 18.0104 16.8148 17.9148L13.2818 14.3348C11.6954 15.5826 9.69936 16.171 7.69996 15.98C5.70057 15.789 3.84814 14.8331 2.51979 13.3069C1.19144 11.7806 0.48701 9.79874 0.549913 7.76472C0.612816 5.73069 1.43832 3.79742 2.85837 2.35844C4.27843 0.919462 6.18628 0.0829594 8.19356 0.0192183C10.2008 -0.0445228 12.1566 0.669289 13.6628 2.01534C15.169 3.3614 16.1123 5.23851 16.3008 7.26455C16.4893 9.29059 15.9087 11.3133 14.6772 12.9208L14.6782 12.9218Z"
        fill="#181B19" />
</svg>