<svg width="21" height="21" viewBox="0 0 21 21" fill="none" xmlns="http://www.w3.org/2000/svg">
    <path
        d="M7.40381 7.58781C7.93381 8.06281 8.63581 8.35181 9.40381 8.35181H11.4038C12.1419 8.35283 12.8543 8.08069 13.4038 7.58781H7.40381ZM7.40381 7.58781C6.85435 8.08069 6.14194 8.35283 5.40381 8.35181L7.40381 7.58781ZM6.45381 2.35181V2.30181H6.40381H3.40381C3.12533 2.30181 2.85826 2.41243 2.66135 2.60934C2.46444 2.80626 2.35381 3.07333 2.35381 3.35181V5.35181C2.35381 5.63028 2.46444 5.89736 2.66135 6.09427C2.85826 6.29118 3.12533 6.40181 3.40381 6.40181H5.40381C5.68229 6.40181 5.94936 6.29118 6.14627 6.09427C6.34319 5.89736 6.45381 5.63028 6.45381 5.35181V2.35181ZM3.41381 8.30181H3.36381V8.35181V18.3168V18.3668H3.41381H5.40381H5.45381V18.3168V13.3518C5.45381 12.8346 5.65926 12.3386 6.02495 11.9729C6.39065 11.6073 6.88664 11.4018 7.40381 11.4018H9.40381C9.92098 11.4018 10.417 11.6073 10.7827 11.9729C11.1484 12.3386 11.3538 12.8346 11.3538 13.3518V18.3168V18.3668H11.4038H17.4168H17.4668V18.3168V8.35181V8.30181H17.4168H15.4038C14.6486 8.30181 13.9583 8.01765 13.4372 7.55057L13.4038 7.52065L13.3704 7.55059C12.8302 8.03522 12.1297 8.30281 11.4039 8.30181H11.4038H9.40381C8.64857 8.30181 7.95834 8.01765 7.43718 7.55057L7.4038 7.52065L7.37042 7.55059C6.83015 8.03522 6.12967 8.30281 5.40388 8.30181H5.40381H3.41381ZM1.41198 7.52893C1.11554 7.25816 0.87751 6.92947 0.712711 6.56299C0.541482 6.18222 0.453229 5.76938 0.453812 5.35188V5.35181V3.35181C0.453812 2.56942 0.764614 1.81907 1.31785 1.26584C1.87108 0.712609 2.62142 0.401807 3.40381 0.401807H17.4038C18.1862 0.401807 18.9365 0.712609 19.4898 1.26584C20.043 1.81907 20.3538 2.56942 20.3538 3.35181V5.35181C20.3538 6.21914 19.9802 6.99984 19.3833 7.53972L19.3668 7.55461V7.57681V18.3168C19.3668 18.834 19.1614 19.33 18.7957 19.6957C18.43 20.0614 17.934 20.2668 17.4168 20.2668H9.77681V20.2659L9.76752 20.2677C9.64761 20.2904 9.52584 20.3018 9.4038 20.3018H7.40381C7.28178 20.3018 7.16001 20.2904 7.0401 20.2677L7.04027 20.2668H7.03081H3.41481C2.89764 20.2668 2.40165 20.0614 2.03595 19.6957C1.67026 19.33 1.46481 18.834 1.46481 18.3168V7.59681V7.47611L1.41198 7.52893ZM9.45381 13.3518V13.3018H9.40381H7.40381H7.35381V13.3518V18.3168V18.3668H7.40381H9.40381V18.3178H9.45381V18.3168V18.2668V13.3518ZM12.4538 2.35181V2.30181H12.4038H8.40381H8.35381V2.35181V5.35181C8.35381 5.63028 8.46444 5.89736 8.66135 6.09427C8.85826 6.29118 9.12533 6.40181 9.40381 6.40181H11.4038C11.6823 6.40181 11.9494 6.29118 12.1463 6.09427C12.3432 5.89736 12.4538 5.63028 12.4538 5.35181V2.35181ZM14.4038 2.30181H14.3538V2.35181V5.35181C14.3538 5.63028 14.4644 5.89736 14.6613 6.09427C14.8583 6.29118 15.1253 6.40181 15.4038 6.40181H17.4038C17.6823 6.40181 17.9494 6.29118 18.1463 6.09427C18.3432 5.89736 18.4538 5.63028 18.4538 5.35181V3.35181C18.4538 3.07333 18.3432 2.80626 18.1463 2.60934C17.9494 2.41243 17.6823 2.30181 17.4038 2.30181H14.4038ZM14.4038 11.4018H15.4038C15.6558 11.4018 15.8974 11.5019 16.0756 11.6801C16.2537 11.8582 16.3538 12.0999 16.3538 12.3518V15.3518C16.3538 15.6038 16.2537 15.8454 16.0756 16.0236C15.8974 16.2017 15.6558 16.3018 15.4038 16.3018H14.4038C14.1519 16.3018 13.9102 16.2017 13.7321 16.0236C13.5539 15.8454 13.4538 15.6038 13.4538 15.3518V12.3518C13.4538 12.0999 13.5539 11.8582 13.7321 11.6801C13.9102 11.5019 14.1519 11.4018 14.4038 11.4018Z"
        fill="#181725" stroke="white" stroke-width="0.1" />
</svg>